<svg id="layer_1" data-name="layer1" xmlns="http://www.w3.org/2000/svg" viewBox="0 0 456.9 164.92"><defs><style>.cls-1{fill:#fff;}</style></defs><g id="layer_2" data-name="layer2"><g id="layer_1-2" data-name="layer1-2"><path class="cls-1" d="M99.9,30.6c-.9.4-5.6,6.5-5.6,7.4,0,0-3,4.8-6.9,10.4-4.8,6.5-3.5,4.3-10,16.1C76,68.4,73.8,70.1,66,84.9c0,.4-.4.4-.9,1.3l-1.3,2.6-.4.4-2.2,4.6c0,.2-1.7,2.2-1.7,3.3l.2.2a.75.75,0,0,1-.5.7h-.1a5.81,5.81,0,0,0-1.3,2.6c-.4,1.3-.9,2.2-1.3,2.2a1.27,1.27,0,0,0-.4.9l.2.7a1.87,1.87,0,0,1-1.5,2c-.4.4-.4.9-.9,1.3a1,1,0,0,1,.2.9c0,.2,0,.4-.7.4a3.15,3.15,0,0,0-.9,1.7l-.4.4c-.9,1.7-1.7,3.5-2.6,5.7h.2l-.7.9c-1.7,2.6-10,20.8-15.6,34.3l.2.4a6.5,6.5,0,0,1-1.1,2.2c-1.7,2.6-2.2,2.6-2.2,4.3,0,1.3-.9,1.5-.9,2.8v.6c0,1.5-.6,2.6-1.7,2.6h-.4c-1.3,0-4.3-3-4.8-3.9,0-.9-2.2-4.4-2.6-5.2,3-9.1,3.9-9.1,6.1-14.3a5,5,0,0,0,1.3-2.6c0-.4,0-.9.4-.9s.4-.4.4-1.3c0-1.3,3.2-4.6,3.2-5l-.2.2-.6.2a.22.22,0,0,1-.2-.2h0c0-.4,3.7-8.2,4.3-8.2.9,0,2.6-2.4,2.6-3l-.2-.2-2.1,2.3a31.21,31.21,0,0,1,1.5-4.3c2-4.3,4.3-8.5,4.8-8.5h.2a2.09,2.09,0,0,0,1.5-1.1c.4-.9,1.3-1.3,1.7-1.7,2.6-5.7,5.6-11.3,8.7-16.9-1.7,2.2-3.3,4.6-4.8,7C47.8,98.6,47.2,99,47,99v-.2a3,3,0,0,1,.7-1.5A7.89,7.89,0,0,0,49,94a.43.43,0,0,0-.4-.4l-.4.2a1.23,1.23,0,0,0-.7,1.1c0,.4,0,.7-.7.7a16.15,16.15,0,0,0-3.5,1.7,40.22,40.22,0,0,1-13.9,6.5c-2.4.7-3.3,1.1-3.3,1.5l1.5.2.9-.4v.4c-.4.7-3.3,1.5-6.5,1.5-2.8,0-5.6-.4-7.8-2.4-1.3-.9-2.2-1.7-2.6-1.7-2,0-9.1-12.4-10.9-18.2a47,47,0,0,1-.9-9.2c0-8.9,2-20.2,6.1-32.6,2.6-7.8,3-10,4.3-10a.56.56,0,0,0,.6-.5v-.2l-.2-.7c0-1.7,4.6-11.3,6.9-16.1a12.81,12.81,0,0,0,1.3-3.9A94,94,0,0,1,23.6,2a4.74,4.74,0,0,1,3.9-2,2.15,2.15,0,0,1,2.2,1.1c0,.9.9,1.7,1.3,2.2.9.4,1.1,1.5,1.1,2.6a8.27,8.27,0,0,1-1.5,4.8,8.06,8.06,0,0,0-1.3,3c.2,0,.2.4.2.9a1.37,1.37,0,0,1-.6,1.3c-.9,2-16.5,37.3-16.5,42.3v.7c0,.4,0,.9-.4.9s-2.2,5.7-2.6,6.1S7.7,75,7.7,78.5C7.8,79.7,7.4,81,7,81v.9A60.36,60.36,0,0,0,8.3,92.3c1.3,3.5,3.5,4.8,8.7,5.7h1.5c5.9,0,15.6-4.6,23.7-10.4a83.39,83.39,0,0,0,10.4-8.2c2.2-2.2,1.7-.4,5.6-5.2,6.5-8.2,0,3,13.9-22.2a27.28,27.28,0,0,1,2.2-3c.4-1.3,1.3-2.2,1.3-2.6a7.1,7.1,0,0,1,1.3-2.2,27.73,27.73,0,0,0,2.6-4.8c.9-1.3,2.2-3.5,3-4.8a11.37,11.37,0,0,0,1.7-3.5.43.43,0,0,1,.4-.4h0c.4,0,.9-1.3,1.3-2.2,1.3-2.6,2.6-4.3,4.3-8.2,2.6-4.6,3.7-5.9,5.2-5.9l.9.2c3.5,0,6.1,3.5,6.9,8.2C103.3,25.4,101.6,30.2,99.9,30.6ZM41.5,94.4c1.5,0,13.7-11.7,14.1-12.2a6.22,6.22,0,0,0,.9-2.6l-.3-.6-.7,1.1c-.4.9-1.7,2.6-2.2,2.6h-.2c-.9,0-4.1,2.2-4.1,3s-8.2,7.4-9.1,7.4h-.2c-1.3,0-4.6,3-5.4,3s-1.3.4-1.3.8c0,.2.2.4.7.4A9.63,9.63,0,0,0,37.4,96a5.45,5.45,0,0,1,3.5-2Zm3.9,8c0,1.3-3.5,7.2-4.1,7.2a13.53,13.53,0,0,1,1.7-3.4c.7-1.5,1.5-2.6,1.5-3.3l-.2-.2a1.27,1.27,0,0,1,.9-.4Zm1.5-1.7c0,.2,0,.7-.4.7s-.9-.7-.9-1.1c0-.2.2-.7.4-.7a1,1,0,0,1,.9,1.1ZM65.1,66.9c.2,0,1.1-.9,2.6-2.8L80.7,42l-.7-.2c-.4,0-1.3,1.3-7.2,11.5C67.7,61.9,65.1,66.4,65.1,66.9ZM87.7,28c-2.8,5.2-7,10-7,13v.4c3-4.8,5.7-10,8.7-14.8Z" transform="translate(0.2 0.02)"/><path class="cls-1" d="M109,120.9a10.56,10.56,0,0,1-5.2-1.3c-2.6-.9-3.5-1.7-3.9-1.7-.9,0-1.3.4-1.7,1.7,0,0-4.3,8.2-8.2,12.2-.2.2-.9,2.2-1.7,3.9-1.3,1.3-2.6,3.5-2.6,4.3a15.9,15.9,0,0,1-6.6,6.5,4.14,4.14,0,0,0-2.2,1.7,2.48,2.48,0,0,1-2.2,1.3c-.9,0-1.3-.4-2.6-.4-2.6-.4-3.9-.9-6.1-3.5a19,19,0,0,1-3-4.4,13.77,13.77,0,0,0-.9-3.9,10.39,10.39,0,0,1-.4-3.9,23,23,0,0,1,.9-6.9c2.6-8.5,9.5-21.9,15.6-30.4,2.6-3.7,9.1-11.3,12.1-12.2a24.07,24.07,0,0,0,4.8-3,11.64,11.64,0,0,1,5.2-2.6h1.3a7.77,7.77,0,0,1,3.9,1.3c4.8,3.5,6.5,6.1,6.5,10.4v2.2c-.4,2.2-.9,3.5-1.7,4.3s-1.7,1.7-1.7,2.2a8.6,8.6,0,0,1-.9,3c-1.7,3-4.3,8.3-4.3,8.3a11.76,11.76,0,0,0,8.7,3.5c6.5,0,12.6-4.8,12.6-4.8a1.56,1.56,0,0,1,1.1,1.7,4.1,4.1,0,0,1-.7,2.6C123.3,117.5,115.5,120.9,109,120.9ZM79.5,132.7c9.1-7.4,14.3-20.8,14.3-20.8l.2-.9a20.88,20.88,0,0,0-1.1-4.3,16.16,16.16,0,0,1-1.7-4.8c0-.9,0-1.3-.4-1.3-.9,0-5.2,5.2-6.5,7a11.78,11.78,0,0,1-1.7,2.2c-.4.9-2.2,3-3.5,5.7-5.6,8.5-9.8,18.7-9.8,22.1,0,.9.2,1.3.7,1.3,2.6,0,7-3.9,10.9-9.6l.4-.4.4.4a25.29,25.29,0,0,1-1.3,2.2c-.9.6-1.1.9-1.1,1.1Zm4.3,3.4h-.4c-.7,0-1.5.6-1.5,1.1l.2.2c.4,0,.9-.4,1.3-.4Zm7.6-10.6a.75.75,0,0,0-.5-.7h-.1c-.4,0-.9,0-.9.9,0,.4,0,.9-.4.9s-.9.4-.9,1.7c-.2.9-.7,1.1-.9,1.1a1.49,1.49,0,0,1-.9-.2l-1.1.2.2.2a8.6,8.6,0,0,1-.9,3L83.7,135c0,.2.2.2.4.2.9,0,2.6-2.2,5.2-5.6C90.5,127.7,91.4,126.2,91.4,125.5Zm-2.2-1.1h-.7a1.27,1.27,0,0,0-.4.9c0,.2,0,.4.4.4a1.27,1.27,0,0,0,.4-.9Zm7.4-7.8-.4-1.5c-.2,0-.4.4-.7,2l-.7-.2c-.2,0-.7.2-1.1,1.1l-2.2,5.2v.4c.4,0,2.2-1.3,3.9-4.3A8,8,0,0,0,96.6,116.6Zm6.5-13.7a1,1,0,0,0-.2-.7l-.7-.4h.9a2.15,2.15,0,0,0,2-2c0-.2,0-.7-.4-.7a3.36,3.36,0,0,1-.4-2.2l.4-.9h-.4l-.9.9a11.58,11.58,0,0,1-2.2,3.9c-1.5,2.4-2.2,3.5-2.2,4.1a2.14,2.14,0,0,0,.9,1.5c.4.4.9.9,1.1.9.4,0,.7-.7,1.5-2.2A7.09,7.09,0,0,0,103.1,102.9Zm-1.9-7.8v.2c.4,0,.9,0,1.3-.9.3-.6.6-1.1.9-1.7,0-.2,0-.4-.4-.4C102.3,92.3,101.2,94.2,101.2,95.1Zm21.3,17.6a1.48,1.48,0,0,0,1.3-.4,1.27,1.27,0,0,0,.4-.9c0-.4-.4-.4-.9-.4,0,0-1.3,1.3-1.3,1.7Z" transform="translate(0.2 0.02)"/><path class="cls-1" d="M141.4,98.4c0-.5-.4-.8-.9-.9s-.9.9-1.7,1.7a7.27,7.27,0,0,0-2.2,3.9c0,.4-.9.9-1.7.9-1.7,0-3.9,1.3-3.9,2.2a.43.43,0,0,0,.4.4h0a2.4,2.4,0,0,1,.9,1.7c0,.5.4.8.9.9.9,0,10.4,13,13,17.8,2.6,5.2,3.9,9.1,3.9,12.2a11.57,11.57,0,0,1-3.5,6.5c-2.6,2.2-8.7,6.1-10,6.1-.9,0-1.3,0-1.3.9v.4l-.9-.4a2.07,2.07,0,0,0-1.3.9c-.9.9-4.8,2.2-9.6,2.6a68.18,68.18,0,0,0-6.9.9h-2.2a13.59,13.59,0,0,1-4.8-.9l-1.7-1.3,4.8-.4c6.5-.4,12.2-2.2,13-3,0-.4,0-.4-.4-.4l-1.7.4c-3,.4-4.3.4-11.7,1.3a15.34,15.34,0,0,0-4.3,1.3c0,.5-.4.8-.9.9s-.9-.4-.9-1.3c0-.4-.4-1.3-.9-1.3V152h3c8.7-.4,22.6-5.6,28.7-11.3,1.7-1.3,2.6-2.2,2.6-2.6a10.11,10.11,0,0,0-3,1.3c-2.2,1.3-3.5,1.7-4.4,1.7,0-.4.9-1.7,2.6-3,3-2.6,4.8-4.8,5.2-7.4,0-3.5-2.2-7.8-7-13.5-3-3.5-6.1-6.1-6.5-6.1s-.9-.9-1.7-1.7c0-.4-.9-1.3-1.3-2.2-2.6-3-5.7-10.4-6.1-15.2V88c.4-3.9,2.2-6.1,5.7-7.4a9.88,9.88,0,0,0,3.5-2.2c.4-.4,3.9-1.7,7.8-2.6a35.86,35.86,0,0,1,8.7-1.3h.9c5.2,0,11.5,7.4,11.5,10.8a1.49,1.49,0,0,1-.2.9c-.4.9-2.6,1.7-4.3,3.5-2.2,2.2-4.3,4.3-5.6,4.8a14.52,14.52,0,0,0-2.6,1.7v2.2a.43.43,0,0,1-.4.4h0Zm-6.3,48.2c0-.4-.2-.6-.4-.6a4.31,4.31,0,0,0-2.6,1.5c-1.5.9-2.8,1.7-3.7,2.2a1.65,1.65,0,0,0-1.5.9l.4.2c.7,0,2.2-.9,4.1-1.5C133.1,148.3,135.1,147,135.1,146.6Zm5.8-54.8c5-4.6,4.6-5.7,4.8-6.5a.43.43,0,0,0-.4-.4,27.4,27.4,0,0,0-7.4,1.7,36.1,36.1,0,0,0-7.4,4.8,8.07,8.07,0,0,0-2.4,5.9V98a15.47,15.47,0,0,0,.7,4.3c0,.9.2,1.3.6,1.3.6,0,1.5-.9,3-2.6C133.3,99.7,137.7,95.3,140.9,91.8Z" transform="translate(0.2 0.02)"/><path class="cls-1" d="M202.4,145.7c-6.7-3.7-8.9-9.8-8.9-16.3,0-11.5,6.7-24.1,6.7-25-2.2,0-7.2,10-12.6,16.1-1.3,1.3-2.6,3-2.6,3.5,0,0-.9,3.9-3,6.1l-.9,1.7c0,1.5-7,8-7,9.1,0,1.3-5.6,6.5-8.7,6.5-1.7,0-2.6,0-3-1.3a1.32,1.32,0,0,0-1.3-1.3c-.9,0-1.1-3.5-2.6-3.5-.9,0-1.7-2.6-1.7-5.2,0-1.3.9-7.8,2.2-7.8.4,0,.9,0,.9-.4,0-.7-1.3-1.7-1.3-1.7s2.2-.4,2.2-3.5c0-.4,0-.4.4-.4,0,0,6.3-20.8,7.8-20.8.4,0,.9-.9,1.3-1.7.9-3.9,16.1-36.9,16.9-38.2,1.1-2,18.2-33.9,22.1-33.9,1.5,0,1.9.9,3,.9a.43.43,0,0,0,.4-.4h0c1.5,0,4.8,3.7,4.8,7.4a10.11,10.11,0,0,1-1.3,3c-.4,0-1.3,2.6-3.5,3.9-8.2,6.1-30.4,52.1-30.4,52.1l.4.9c0,.9-1.3,1.7-2.2,3.5-5.6,11.7-5.6,15.2-7,16.5-.4.9-5.6,15.2-5.6,16.9l.4.4c.9,0,6.5-8.2,15.2-18.7.9-.9,2.2-2.2,2.2-3,1.3-2.6,6.5-7.8,7.4-9.1C200,95.1,200,89.8,210,82.5a5.1,5.1,0,0,1,3.5-1.7c.4,1.3,0,1.7,1.3,1.7l3.5,1.7a7.44,7.44,0,0,1,2.2,5.2c0,1.7-.6,3.7-2.6,6.1-11.1,22.8-13.7,26.9-14.3,40.4l-.4-.4.4,5.2c.4.4,1.7.4,3,.4,2.6,0,6.5-.4,7.8-1.3,9.6-3.5,17.4-16.9,23.4-21.3,2.8-2.8,6.5-10.4,6.5-10.4,1.3,0,3.5.4,3.5,1.7,0,3.9-8.2,13.9-20.9,29.1-1.7,2.4-10.9,10.4-16.9,10.4C206.7,149.2,203.2,147.4,202.4,145.7Zm-37.8-22.6-.4-.2a2.09,2.09,0,0,0-.7,1.3l.2.4Zm9.1-23.2c4.8-9.3,6.7-16.9,9.3-20.2.6-1.1,11.5-23,11.5-24.1-.6,0-6.7,11.1-14.5,27.3-4.1,8.5-4.4,8.9-4.4,10.4,0,1.9-1.1,1.1-5.2,11.3-4.8,12.2-6.3,16.1-6.3,17.2l.2.2C165.9,122,169.8,107.5,173.7,99.9Zm5-5.4v-.2l-1.3,2,.2.2a3.65,3.65,0,0,0,1.1-2ZM188.2,74l-1.5,2c-1.3,2.6-2.2,2.8-2.2,3.7,0,1.3-4.6,8.7-4.6,10.6l.4.7C181.1,91,188.2,76.4,188.2,74Zm5,31.9-2.2,2.4c-8.5,12.4-10.4,13-10.4,15.4l.2.2c.9.1,12.4-17.1,12.4-18Zm8.5-11.5c-.6,0-7.6,9.3-7.6,10.2.9.1,7.6-9.5,7.6-10.2Zm2.6-3-.2-.2-1.7,2.2c1.3-.9,1.9-1.6,1.9-2Zm-.6,36.7c.2-2.8,7.4-24.3,9.1-26.1l1.3-2.4-.2-.4c-.2,0-1.3,1.5-3.9,7-3,5.9-7.2,17.4-7.6,22.8l.4.6c.2,0,.6-.6.9-1.5Zm26.9,0h-.2c-.4,0-3.5,2.8-3.5,3.3l.6-.2c1.6-.9,3.1-2.4,3.1-3.1Zm1.5-1.1-.2-.4-.6.4.2.7Z" transform="translate(0.2 0.02)"/><path class="cls-1" d="M264,77.5c.9,1.7,1.7,2.6,2.2,2.6s.4.4.4.9v.4c0,.9.4.9,1.7.9a9.8,9.8,0,0,1,1.3-2.2c.4,0,.4.4.4.9v2.2c0,1.3.9.9.9,1.7,0,2.6-18.7,28.2-20,33a36.18,36.18,0,0,0-2.2,11.7,17.74,17.74,0,0,0,.9,5.6l.9,3c10.9-.9,13.9-2.2,28.7-15.2,7.8-6.9,11.3-10.8,14.8-14.3.9-.9,1.3-.9,1.7-.9a2.07,2.07,0,0,1,1.3.9,1.27,1.27,0,0,1,.4.9c0,.9-.9,2.2-3,3-4.3,1.7-4.3,3.9-4.3,4.3v.4s-.9,2.2-1.7,2.2c-2.6,2.2-3.5,2.2-5.2,4.3v.4c0,.7-.2,1.1-2.6,2.2-1.3.4-2.6,1.3-2.6,1.7,0,0,0,.9-7.4,5.6-2.2,1.7-3,2.2-3,2.6s.4.4.4.9c.4,0,.9.4,1.3.4a10.11,10.11,0,0,0,3-1.3c2.6-1.7,6.1-4.4,7-4.4,0,.4-2.2,2.6-8.2,8.7-3,3-8.2,6.1-11.7,6.5H259c-2.6,0-8.2-2.2-10.9-3.9-1.7-1.3-5.2-1.7-8.7-9.6V121.5c0-1.3,18.2-44.7,23.9-44.7C263.6,77.1,263.6,77.5,264,77.5Zm-20.4,37.8a3.09,3.09,0,0,0-1.1,2,15.12,15.12,0,0,0-.9,5.7c0,1.3.2,2.4.4,2.4l1.1-3.3c.2-3,.9-5,.9-6.1C244.1,115.5,243.8,115.3,243.6,115.3Zm1.5-6.7c-.2,0-.2.7-.9,2.6-.7,1.3-1.3,2-1.3,2.2.2,0,.6-.2,1.3-1.1a5.5,5.5,0,0,0,1.1-3Zm8.5-24.1c.9,0,.9,0,.9.4a11.42,11.42,0,0,1-.9,2.6c-1.3,3-6.1,12.6-6.1,13C247.5,98.6,252.7,84.5,253.6,84.5Zm14.3-16.1c.2,0,.4-3,.4-3.9V64c0-.4,7.6-9.8,9.1-10.4.2-.2.6-.2,1.1-.2s1.5.2,2.2.2l3.3.2c.9.2,1.3.2,1.3.4a3.13,3.13,0,0,1-.9,1.1h1.7c.6,0,1.1,0,1.1.7s-5.6,8.7-5.6,9.3a27.65,27.65,0,0,1-5.4,6.1l-.4.2c-2,0-6.5-1.5-7.2-1.5-1.1-.2-1.5-.4-1.5-.7C267.3,68.8,267.7,68.4,267.9,68.4Z" transform="translate(0.2 0.02)"/><path class="cls-1" d="M287.5,137.9c-1.3-2.6-1.7-3.9-1.7-6.1a28.82,28.82,0,0,1,1.3-6.5c1.7-8.7,7-17.4,17-31.3,5.6-8.2,14.3-13.9,21.7-13.9,2.2,0,3.9,0,5.6,1.3h1.3c.9,0,1.7-.9,2.2-2.2s.9-1.7,1.3-1.7a1.48,1.48,0,0,1,1.3.4v.4a2.59,2.59,0,0,1-.9,1.7,3.84,3.84,0,0,0-1.3,2.2l.4.4c1.7,0,5.2-10.4,5.2-12.2V70H340c-.4,0-.4-.4-.4-.9a3.11,3.11,0,0,1,.9-2.6c0-.4,0-.4.4-.4v3L343,67c1.7-3,2.6-4.3,2.6-5.2s-.4-.9-.9-.9c-.4.4-.9,1.7-1.7,1.7h-.4V62c0-2.8,12-26.5,22.6-35.8,6.9-5.6,7.4-6.1,11.7-6.5,3.9,0,4.8.4,7.8,2.6,2.2,2.2,3,3.5,3,5.6v.9c0,2-1.3,4.6-3.5,8.2-2.6,3.9-4.3,7.4-5.6,8.7-1.7,1.7-1.7,3-9.1,13.9-6.5,9.6-2.2,4.8-10.4,17.4-3,3.9-5.6,7.4-5.6,7.8a.43.43,0,0,1-.4.4h-.4a.43.43,0,0,0-.4-.4h0c0-.9,1.3-2.6,1.3-3a.43.43,0,0,0-.4-.4h0a1.8,1.8,0,0,1-.9-.4c0-.4,0-.4.4-.4h1.7v-.9c-.4-.4-.4-.4-.4-.9h.9a1.48,1.48,0,0,0,1.3-.4c1.7-2.6,6.9-11.3,6.9-11.7s.4-.8.9-.9.9-.9,1.3-1.7a3.29,3.29,0,0,0,.4-1.7c0-.4,0-.4-.4-.4a.43.43,0,0,0-.4-.4h.9a3.73,3.73,0,0,0,2.2-3.5v-.9c0-.4,0-.4.4-.4,1.3,0,2.2-.9,2.2-1.3h-1.3a.43.43,0,0,1-.4-.4h0a1.57,1.57,0,0,1,1.3-.4c.9,0,4.4-4.3,4.4-5.7,0-.5.4-.8.9-.9.9-.4.9-2.6,4.8-8.7a6.38,6.38,0,0,0,1.3-2.6c-.4,0-.4,0-.9.9-.9.4-1.3.9-1.7.9V38c0-.4.4-1.3,1.7-2.6,1.7-1.3,2.6-2.6,2.6-3h-.4a3.29,3.29,0,0,0-1.7.4c-.9.4-1.7.9-1.7,1.3l-1.7,2.6c-3,3.5-6.1,10.8-7.4,11.3-1.7.4-.4,3-2.2,3.9-2.2,1.3-4.3,8.7-5.6,8.7-.4,0-.9.9-1.3,1.7a2.88,2.88,0,0,1-2.6,2.2c-1.3,0-1.7.4-1.7.9s0,.9.4.9.4,0,.4.4a8.49,8.49,0,0,1-.9,2.2c-.4,1.3-.9,1.7-1.3,1.7a1.27,1.27,0,0,1-.4-.9l-.4-.9c-.4,0,0,3-1.3,4.3-.9.4-.9.9-.9,1.3v.4a5.07,5.07,0,0,1-1.7,3c-2.6,3-.9,1.7-4.3,7-5.6,10-2.2,5.6-5.2,13.5a8.07,8.07,0,0,0-1.7,3.9c.4,0,5.6-7,8.7-12.2,1.7-2.6,3-3.9,3.5-3.9s.4,0,.4.4-1.3,2.6-6.9,10.8c-7.4,9.6-9.1,13-9.1,24.8.4,9.1,3.5,13.9,9.1,13.9a45.57,45.57,0,0,0,5.2-1.8c1.3-.4,7-3.5,7-4.3,0-.4,6.5-5.2,7.4-5.2a1.48,1.48,0,0,1-.4,1.3c-.9.4-4.3,3.5-4.3,3.9a.43.43,0,0,0,.4.4h0v-.4c2.2-.9,11.3-10,11.3-11.7a3.65,3.65,0,0,1,1.3-2.6c.2-.4.6-.4,1.1-.4s.9-1.5,1.1-2a8.11,8.11,0,0,0,1.7-5.4l.4-.4s.4,0,1.3.9a.43.43,0,0,0,.4.4h0a2.07,2.07,0,0,0,1.3-.9v-.4a1.32,1.32,0,0,1,1.3,1.3,3.59,3.59,0,0,0-2.6,1.7c-.4,6.5-13.5,19.1-14.8,20.4s-4.8,6.1-7.8,6.5l-1.3.9c0,.4,1.3.4,3.9.4h.4a8.75,8.75,0,0,0,5.2-1.7,3.84,3.84,0,0,1,2.2-1.3h.4c0,.4,0,.9-.9,1.3-2.6,1.7-7.4,9.1-18.2,9.1H348c-8.5,0-15.2-10-15.6-13,0-.9-.4-1.7-.9-1.7-1.3,0-1.3-10.9-2.2-11.7h-.4c-1.3,0-4.8,3.5-10.9,9.6-8.7,10-16.1,14.8-21.3,15.2C292.7,144.4,290.1,142.2,287.5,137.9Zm7.4-4.8a8.06,8.06,0,0,0,3-1.3c5.4-2.8,11.5-7.2,12.6-7.8,2.8-2,17.8-18.5,17.8-19.5-.2-1.1-1.3-2.2-2-2.2l-.9.4-.4-.4c0-2.4,5.9-8.7,5.9-11.1,0-.4-.2-.7-.9-.7-.9,0-4.6,2.6-6.7,4.8-2.4,2.4-10.4,6.3-19.1,19.1-4.1,6.1-9.8,16.7-9.8,18.5Zm28.2-18.7c0,1.3-7,7.4-10.4,10.9l.9.2.9-.7c.9,0,3.9-2.6,7.4-5.6,3.9-3.5,4.3-6.5,4.3-6.5,0-1.7-.4-1.7-.9-1.7a12.38,12.38,0,0,0-2.2,3.4Zm5-4.5c-.9,0-.9,1.9-.9,2.8l.4,1.1c.4,0,.9-1.1.9-2.2v-.4c0-.7,0-1.1-.4-1.3Zm9.8-25.4v.4c.4,0,1.3-1.7,1.3-2.6C338.5,82.3,337.9,83.6,337.9,84.5Zm1.2-3.9a.43.43,0,0,0,.4.4h0c.4,0,.9-.9.9-1.7H340C339.6,79.2,339.1,79.7,339.1,80.6Zm6.1-20.4c.9,0,2.2-3,2.2-3.9-.6-.1-2.2,2.5-2.2,3.9Zm4.6-8.5c-.5,0-.8.4-.9.9l.4.7c.2,0,.4-.2.6-.7a.76.76,0,0,0,.2-.4Zm3.7-7.2v.2c0,.7,0,.9.2.9s.4-.4.9-.9v-.4c0-.2-.2-.2-.4-.2-.5,0-.7.2-.7.4Zm4.5-5.8c.2-.2,2.8-3.5,3-3.7-.9.9-3.3,2.8-3.3,3.5ZM370.9,43c-5.4,6.7-7.4,9.3-7.4,10s-2.8,5.2-3.7,6.1a8.21,8.21,0,0,0-1.3,3.5c.9,0,2.8-3,3.7-3.9a4.71,4.71,0,0,0,.6-1.5c1.3-2.5,2.8-4.9,4.3-7.2a67.52,67.52,0,0,0,4.8-8.2ZM363,134.4c3-4.1,5-5.2,5.9-5.2h.2v1.3c-1.7,1.7-7.4,6.1-8.5,6.1Zm10-16.5c.9-.9,1.3-.9,1.3-1.3h-.9c-.9,0-1.3.4-1.3.9s0,.4.4.4Zm10.2-88.8c-.2,0-.4.2-.4.6,0,.9.2,1.3.4,1.3a1.2,1.2,0,0,0,.6-1.3c0-.2,0-.6-.4-.6Z" transform="translate(0.2 0.02)"/><path class="cls-1" d="M376.5,150a1.68,1.68,0,0,0-1.7-.9h-.4s-5.4,0-5.4-16.3l.2-3.7c1.1-1.7,1.7-1.3,1.7-3,0-.4,0-.9-.4-.9,0,0,3.5-3.7,3.5-5.7l-.4-3,.4-.4c.6,0,.2.4,1.3,1.3a5,5,0,0,0-.4-1.3,6.76,6.76,0,0,1,1.3-3.9c8.2-14.3,12.6-20.8,17.4-26.1l1.3-3.5s9.1-4.3,11.3-4.3a8.32,8.32,0,0,1,7.8,4.3c.9,1.3,1.7,1.7,2.2,1.7.9,0-.4-3,2.2-3a8.49,8.49,0,0,1,2.2-.9c.9,0,4.4,2.6,4.4,2.6,1.3,0,1.7,3.3,1.7,5.2-.9,3-2.2,7.4-3,8.2-2.6,3.9-6.5,18.2-6.5,18.2a73.16,73.16,0,0,0-.9,9.3c0,6.1.9,9.3,4.6,10,5.2,0,12.8-8.9,14.5-8.9.4.4.4.4.9.4.9-.9,1.7-1.5,1.7-2.6,0-.5.4-.8.9-.9,0,0,.9,0,3.5-3.5,0,0,7.4-7.4,7.4-8.7,0-.4.9-.9,1.3-1.3,3.5-.4,1.3-1.3,3.9-1.3,1.3,0,1.7,1.7,1.7,3a15.44,15.44,0,0,1-.4,3,38.56,38.56,0,0,1-7.4,10.4v.9l-1.3-.9c-1.3,0-4.1,3.3-11.7,10.9-1.3,1.3-2.2,2.2-2.2,2.6,1.1,0,2.2-1.1,5.6-3v.4c-4.3,4.3-5.9,6.9-13,8.2a10.56,10.56,0,0,1-6.1,0c-2.6-1.7-2.2-2.6-3.9-3.5-2.2-.9-5.2-4.8-6.1-7.8a145.26,145.26,0,0,1-1.3-14.8l.4-2.6a1.8,1.8,0,0,0-.4-.9c-.9,0-2.8,4.6-4.8,7.4a5.63,5.63,0,0,0-1.7,2.6c-1.3,2.4.6.2-8.2,12.2-3.9,7.4-5.6,9.6-10.4,13-2.2,1.3-3.5,2.2-4.8,2.2A2,2,0,0,1,376.5,150Zm0-28.7c2-3.7,5.9-12.4,5.9-12.4-.9,0-1.7,3.5-2.8,3.5,0,.9-4.3,8.9-5.2,9.8V124c.4,0,1.2-.9,2.1-2.7Zm.6-6.7a.75.75,0,0,0-.5-.7h-.2c-.4,0-.6.3-.6.7a1.06,1.06,0,0,0,.6.7c.4-.1.7-.3.7-.7Zm10.7,15.9c.9-1.3,1.3-1.7,1.7-1.7.9,0,.2.2.9.9,0,1.1-3,4.1-3,4.8l.4.4c1.5,0,21.3-27.8,22.6-31.7v-2.6s-2.2,4.3-3,4.3c-.4,0-.4,0-.4-.4,0-1.1.2-1.7,1.3-3.9,0-.4,0-.4.4-.9,2.4-1.3,3.3-6.1,5.6-10-1.3-.9-2-1.3-3-1.3-3,0-6.5,3.9-14.8,13.9-1.3.9-10.4,13.9-10.4,14.3a11.58,11.58,0,0,1-2.2,3.9c-3.5,4.3-4.8,16.5-4.8,16.5s.2.4,1.1.4c1.3,0,3.7-1,7.6-6.9ZM383,113.6c-1.1,0-2.6,2.6-2.6,3.9v.4C380.8,117.9,383,114.4,383,113.6Zm11.7,20a18.65,18.65,0,0,0,2.2-3.9c-.4,0-2,2.2-4.8,5.6a92.2,92.2,0,0,1-6.5,6.9h1.3c1.3,0,4.8-4.3,7.8-8.6Zm17-7.2c0-1.5-.9-7.2-.9-7.2v1.1c0,2.2,0,5.7.6,6.5Zm1.7,8.9.6,1.1c.4.9.9,1.3,1.3,1.3.1-.9-1.7-2.4-1.9-2.4Zm2-16.7c0-.2-.2-.4-.6-.4h-.2a1.5,1.5,0,0,0-.4,1.1,1.8,1.8,0,0,0,.4.9,2.23,2.23,0,0,0,.8-1.6Zm.2-3.7-.2-.2c-.5,0-.8.4-.9.9a1.8,1.8,0,0,0,.4.9Zm16.9,20.8-.2-.2c-.4,0-2.6,1.5-2.6,1.9l.6.2c1.1.1,2.2-1.5,2.2-1.9Zm17.4-20.8s-.4-.7-.9-.7c-.2,0-.6.2-.9,1.1-17.2,20-17.8,17.6-17.8,19.1,1.3,0,19.6-16.9,19.6-19.5Z" transform="translate(0.2 0.02)"/></g></g></svg>
