<?xml version="1.0" encoding="utf-8"?>
<!-- Generator: Adobe Illustrator 25.2.1, SVG Export Plug-In . SVG Version: 6.00 Build 0)  -->
<svg version="1.1" id="layer_1" xmlns="http://www.w3.org/2000/svg" xmlns:xlink="http://www.w3.org/1999/xlink" x="0px"
	 y="0px" viewBox="0 0 456.4 164.8" style="enable-background:new 0 0 456.4 164.8;" xml:space="preserve">
<style type="text/css">
	.st0{fill:#FFFFFF;}
</style>
<g id="layer_2_1_">
	<g id="layer_1-2">
		<path class="st0" d="M99.9,30.6c-0.9,0.4-5.6,6.5-5.6,7.4c0,0-3,4.8-6.9,10.4c-4.8,6.5-3.5,4.3-10,16.1C76,68.4,73.8,70.1,66,84.9
			c0,0.4-0.4,0.4-0.9,1.3l-1.3,2.6l-0.4,0.4l-2.2,4.6c0,0.2-1.7,2.2-1.7,3.3l0.2,0.2c0,0.3-0.2,0.6-0.5,0.7c0,0-0.1,0-0.1,0
			c-0.6,0.7-1.1,1.6-1.3,2.6c-0.4,1.3-0.9,2.2-1.3,2.2c-0.2,0.2-0.4,0.5-0.4,0.9l0.2,0.7c0.1,1-0.6,1.8-1.5,2
			c-0.4,0.4-0.4,0.9-0.9,1.3c0.2,0.3,0.3,0.6,0.2,0.9c0,0.2,0,0.4-0.7,0.4c-0.5,0.5-0.8,1.1-0.9,1.7l-0.4,0.4
			c-0.9,1.7-1.7,3.5-2.6,5.7h0.2l-0.7,0.9c-1.7,2.6-10,20.8-15.6,34.3l0.2,0.4c-0.2,0.8-0.6,1.5-1.1,2.2c-1.7,2.6-2.2,2.6-2.2,4.3
			c0,1.3-0.9,1.5-0.9,2.8v0.6c0,1.5-0.6,2.6-1.7,2.6h-0.4c-1.3,0-4.3-3-4.8-3.9c0-0.9-2.2-4.4-2.6-5.2c3-9.1,3.9-9.1,6.1-14.3
			c0.7-0.7,1.1-1.6,1.3-2.6c0-0.4,0-0.9,0.4-0.9s0.4-0.4,0.4-1.3c0-1.3,3.2-4.6,3.2-5l-0.2,0.2l-0.6,0.2c-0.1,0-0.2-0.1-0.2-0.2l0,0
			c0-0.4,3.7-8.2,4.3-8.2c0.9,0,2.6-2.4,2.6-3l-0.2-0.2l-2.1,2.3c0.4-1.5,0.9-2.9,1.5-4.3c2-4.3,4.3-8.5,4.8-8.5h0.2
			c0.6-0.1,1.2-0.5,1.5-1.1c0.4-0.9,1.3-1.3,1.7-1.7c2.6-5.7,5.6-11.3,8.7-16.9c-1.7,2.2-3.3,4.6-4.8,7c-0.7,1.3-1.3,1.7-1.5,1.7
			v-0.2c0.1-0.5,0.3-1.1,0.7-1.5c0.7-1,1.1-2.1,1.3-3.3c0-0.2-0.2-0.4-0.4-0.4l-0.4,0.2c-0.4,0.2-0.7,0.6-0.7,1.1
			c0,0.4,0,0.7-0.7,0.7c-1.2,0.4-2.4,1-3.5,1.7c-4.2,3-8.9,5.3-13.9,6.5c-2.4,0.7-3.3,1.1-3.3,1.5l1.5,0.2l0.9-0.4v0.4
			c-0.4,0.7-3.3,1.5-6.5,1.5c-2.8,0-5.6-0.4-7.8-2.4c-1.3-0.9-2.2-1.7-2.6-1.7c-2,0-9.1-12.4-10.9-18.2c-0.6-3-0.9-6.1-0.9-9.2
			c0-8.9,2-20.2,6.1-32.6c2.6-7.8,3-10,4.3-10c0.3,0,0.6-0.2,0.6-0.5c0-0.1,0-0.1,0-0.2l-0.2-0.7c0-1.7,4.6-11.3,6.9-16.1
			c0.6-1.2,1.1-2.5,1.3-3.9c1.4-3.2,3-6.4,4.8-9.5c0.9-1.3,2.4-2,3.9-2c0.9-0.1,1.8,0.3,2.2,1.1c0,0.9,0.9,1.7,1.3,2.2
			c0.9,0.4,1.1,1.5,1.1,2.6c0,1.7-0.5,3.4-1.5,4.8c-0.6,0.9-1.1,1.9-1.3,3c0.2,0,0.2,0.4,0.2,0.9c0.1,0.5-0.2,1-0.6,1.3
			c-0.9,2-16.5,37.3-16.5,42.3v0.7c0,0.4,0,0.9-0.4,0.9s-2.2,5.7-2.6,6.1s-1.7,9.1-1.7,12.6C7.8,79.7,7.4,81,7,81v0.9
			c0.1,3.5,0.6,7,1.3,10.4c1.3,3.5,3.5,4.8,8.7,5.7h1.5c5.9,0,15.6-4.6,23.7-10.4c3.7-2.5,7.2-5.2,10.4-8.2c2.2-2.2,1.7-0.4,5.6-5.2
			c6.5-8.2,0,3,13.9-22.2c0.4-0.4,1.3-2.2,2.2-3c0.4-1.3,1.3-2.2,1.3-2.6c0.3-0.8,0.7-1.5,1.3-2.2c1-1.5,1.9-3.1,2.6-4.8
			c0.9-1.3,2.2-3.5,3-4.8c0.8-1.1,1.3-2.2,1.7-3.5c0-0.2,0.2-0.4,0.4-0.4c0,0,0,0,0,0c0.4,0,0.9-1.3,1.3-2.2
			c1.3-2.6,2.6-4.3,4.3-8.2c2.6-4.6,3.7-5.9,5.2-5.9l0.9,0.2c3.5,0,6.1,3.5,6.9,8.2C103.3,25.4,101.6,30.2,99.9,30.6z M41.5,94.4
			c1.5,0,13.7-11.7,14.1-12.2c0.5-0.8,0.8-1.7,0.9-2.6L56.2,79l-0.7,1.1c-0.4,0.9-1.7,2.6-2.2,2.6h-0.2c-0.9,0-4.1,2.2-4.1,3
			c0,0.7-8.2,7.4-9.1,7.4h-0.2c-1.3,0-4.6,3-5.4,3S33,96.5,33,96.9c0,0.2,0.2,0.4,0.7,0.4c1.3-0.2,2.6-0.6,3.7-1.3
			c0.9-1.1,2.1-1.8,3.5-2L41.5,94.4z M45.4,102.4c0,1.3-3.5,7.2-4.1,7.2c0.4-1.2,1-2.4,1.7-3.4c0.7-1.5,1.5-2.6,1.5-3.3l-0.2-0.2
			c0.2-0.2,0.5-0.4,0.9-0.4L45.4,102.4z M46.9,100.7c0,0.2,0,0.7-0.4,0.7s-0.9-0.7-0.9-1.1c0-0.2,0.2-0.7,0.4-0.7
			C46.7,99.7,46.9,100.3,46.9,100.7L46.9,100.7z M65.1,66.9c0.2,0,1.1-0.9,2.6-2.8l13-22.1l-0.7-0.2c-0.4,0-1.3,1.3-7.2,11.5
			C67.7,61.9,65.1,66.4,65.1,66.9z M87.7,28c-2.8,5.2-7,10-7,13v0.4c3-4.8,5.7-10,8.7-14.8L87.7,28z"/>
		<path class="st0" d="M109,120.9c-1.8,0-3.6-0.4-5.2-1.3c-2.6-0.9-3.5-1.7-3.9-1.7c-0.9,0-1.3,0.4-1.7,1.7c0,0-4.3,8.2-8.2,12.2
			c-0.2,0.2-0.9,2.2-1.7,3.9c-1.3,1.3-2.6,3.5-2.6,4.3c-1.5,2.8-3.8,5-6.6,6.5c-0.9,0.3-1.7,0.9-2.2,1.7c-0.4,0.8-1.3,1.3-2.2,1.3
			c-0.9,0-1.3-0.4-2.6-0.4c-2.6-0.4-3.9-0.9-6.1-3.5c-1.2-1.3-2.2-2.8-3-4.4c-0.1-1.3-0.4-2.6-0.9-3.9c-0.4-1.3-0.5-2.6-0.4-3.9
			c0-2.3,0.2-4.7,0.9-6.9c2.6-8.5,9.5-21.9,15.6-30.4c2.6-3.7,9.1-11.3,12.1-12.2c1.7-0.8,3.3-1.8,4.8-3c1.5-1.3,3.3-2.2,5.2-2.6
			h1.3c1.3,0,2.2,0.4,3.9,1.3c4.8,3.5,6.5,6.1,6.5,10.4v2.2c-0.4,2.2-0.9,3.5-1.7,4.3s-1.7,1.7-1.7,2.2c-0.1,1-0.4,2-0.9,3
			c-1.7,3-4.3,8.3-4.3,8.3c2.3,2.3,5.4,3.6,8.7,3.5c6.5,0,12.6-4.8,12.6-4.8c0.2,0,1.1,0.4,1.1,1.7c0.1,0.9-0.2,1.8-0.7,2.6
			C123.3,117.5,115.5,120.9,109,120.9z M79.5,132.7c9.1-7.4,14.3-20.8,14.3-20.8L94,111c-0.2-1.5-0.6-2.9-1.1-4.3
			c-0.8-1.5-1.4-3.1-1.7-4.8c0-0.9,0-1.3-0.4-1.3c-0.9,0-5.2,5.2-6.5,7c-0.5,0.8-1,1.5-1.7,2.2c-0.4,0.9-2.2,3-3.5,5.7
			c-5.6,8.5-9.8,18.7-9.8,22.1c0,0.9,0.2,1.3,0.7,1.3c2.6,0,7-3.9,10.9-9.6l0.4-0.4l0.4,0.4c-0.4,0.7-0.8,1.5-1.3,2.2
			c-0.9,0.6-1.1,0.9-1.1,1.1L79.5,132.7z M83.8,136.1h-0.4c-0.7,0-1.5,0.6-1.5,1.1l0.2,0.2c0.4,0,0.9-0.4,1.3-0.4L83.8,136.1z
			 M91.4,125.5c0-0.3-0.2-0.6-0.5-0.7c0,0-0.1,0-0.1,0c-0.4,0-0.9,0-0.9,0.9c0,0.4,0,0.9-0.4,0.9s-0.9,0.4-0.9,1.7
			c-0.2,0.9-0.7,1.1-0.9,1.1c-0.3,0-0.6,0-0.9-0.2l-1.1,0.2l0.2,0.2c-0.1,1-0.4,2-0.9,3l-1.3,2.4c0,0.2,0.2,0.2,0.4,0.2
			c0.9,0,2.6-2.2,5.2-5.6C90.5,127.7,91.4,126.2,91.4,125.5z M89.2,124.4h-0.7c-0.2,0.2-0.4,0.5-0.4,0.9c0,0.2,0,0.4,0.4,0.4
			c0.2-0.2,0.4-0.5,0.4-0.9L89.2,124.4z M96.6,116.6l-0.4-1.5c-0.2,0-0.4,0.4-0.7,2l-0.7-0.2c-0.2,0-0.7,0.2-1.1,1.1l-2.2,5.2v0.4
			c0.4,0,2.2-1.3,3.9-4.3C96,118.4,96.4,117.5,96.6,116.6z M103.1,102.9c0-0.2,0-0.5-0.2-0.7l-0.7-0.4h0.9c1.1-0.1,1.9-0.9,2-2
			c0-0.2,0-0.7-0.4-0.7c-0.4-0.7-0.5-1.4-0.4-2.2l0.4-0.9h-0.4l-0.9,0.9c-0.5,1.4-1.2,2.8-2.2,3.9c-1.5,2.4-2.2,3.5-2.2,4.1
			c0.1,0.6,0.4,1.2,0.9,1.5c0.4,0.4,0.9,0.9,1.1,0.9c0.4,0,0.7-0.7,1.5-2.2C102.8,104.5,103,103.7,103.1,102.9z M101.2,95.1v0.2
			c0.4,0,0.9,0,1.3-0.9c0.3-0.6,0.6-1.1,0.9-1.7c0-0.2,0-0.4-0.4-0.4C102.3,92.3,101.2,94.2,101.2,95.1z M122.5,112.7
			c0.5,0.1,1-0.1,1.3-0.4c0.2-0.2,0.4-0.5,0.4-0.9c0-0.4-0.4-0.4-0.9-0.4c0,0-1.3,1.3-1.3,1.7L122.5,112.7z"/>
		<path class="st0" d="M141.4,98.4c0-0.5-0.4-0.8-0.9-0.9c-0.4,0-0.9,0.9-1.7,1.7c-1.1,1-1.9,2.4-2.2,3.9c0,0.4-0.9,0.9-1.7,0.9
			c-1.7,0-3.9,1.3-3.9,2.2c0,0.2,0.2,0.4,0.4,0.4c0,0,0,0,0,0c0.5,0.4,0.9,1.1,0.9,1.7c0,0.5,0.4,0.8,0.9,0.9c0.9,0,10.4,13,13,17.8
			c2.6,5.2,3.9,9.1,3.9,12.2c-0.4,2.5-1.7,4.8-3.5,6.5c-2.6,2.2-8.7,6.1-10,6.1c-0.9,0-1.3,0-1.3,0.9v0.4l-0.9-0.4
			c-0.4,0-0.9,0.4-1.3,0.9c-0.9,0.9-4.8,2.2-9.6,2.6c-0.9,0-3.9,0.4-6.9,0.9h-2.2c-1.6,0-3.2-0.3-4.8-0.9l-1.7-1.3l4.8-0.4
			c6.5-0.4,12.2-2.2,13-3c0-0.4,0-0.4-0.4-0.4l-1.7,0.4c-3,0.4-4.3,0.4-11.7,1.3c-1.5,0.2-3,0.7-4.3,1.3c0,0.5-0.4,0.8-0.9,0.9
			c-0.4,0-0.9-0.4-0.9-1.3c0-0.4-0.4-1.3-0.9-1.3v-0.4h3c8.7-0.4,22.6-5.6,28.7-11.3c1.7-1.3,2.6-2.2,2.6-2.6
			c-1.1,0.3-2.1,0.7-3,1.3c-2.2,1.3-3.5,1.7-4.4,1.7c0-0.4,0.9-1.7,2.6-3c3-2.6,4.8-4.8,5.2-7.4c0-3.5-2.2-7.8-7-13.5
			c-3-3.5-6.1-6.1-6.5-6.1s-0.9-0.9-1.7-1.7c0-0.4-0.9-1.3-1.3-2.2c-2.6-3-5.7-10.4-6.1-15.2v-4c0.4-3.9,2.2-6.1,5.7-7.4
			c1.3-0.5,2.5-1.2,3.5-2.2c0.4-0.4,3.9-1.7,7.8-2.6c2.8-0.8,5.7-1.2,8.7-1.3h0.9c5.2,0,11.5,7.4,11.5,10.8c0,0.3,0,0.6-0.2,0.9
			c-0.4,0.9-2.6,1.7-4.3,3.5c-2.2,2.2-4.3,4.3-5.6,4.8c-0.9,0.5-1.8,1-2.6,1.7v2.2c0,0.2-0.2,0.4-0.4,0.4c0,0,0,0,0,0L141.4,98.4z
			 M135.1,146.6c0-0.4-0.2-0.6-0.4-0.6c-1,0.2-2,0.7-2.6,1.5c-1.5,0.9-2.8,1.7-3.7,2.2c-0.6,0-1.2,0.3-1.5,0.9l0.4,0.2
			c0.7,0,2.2-0.9,4.1-1.5C133.1,148.3,135.1,147,135.1,146.6z M140.9,91.8c5-4.6,4.6-5.7,4.8-6.5c0-0.2-0.2-0.4-0.4-0.4
			c-2.5,0.2-5,0.8-7.4,1.7c-2.7,1.3-5.1,2.9-7.4,4.8c-1.6,1.5-2.4,3.7-2.4,5.9v0.7c0,1.5,0.3,2.9,0.7,4.3c0,0.9,0.2,1.3,0.6,1.3
			c0.6,0,1.5-0.9,3-2.6C133.3,99.7,137.7,95.3,140.9,91.8z"/>
		<path class="st0" d="M202.4,145.7c-6.7-3.7-8.9-9.8-8.9-16.3c0-11.5,6.7-24.1,6.7-25c-2.2,0-7.2,10-12.6,16.1
			c-1.3,1.3-2.6,3-2.6,3.5c0,0-0.9,3.9-3,6.1l-0.9,1.7c0,1.5-7,8-7,9.1c0,1.3-5.6,6.5-8.7,6.5c-1.7,0-2.6,0-3-1.3
			c0-0.7-0.6-1.3-1.3-1.3c-0.9,0-1.1-3.5-2.6-3.5c-0.9,0-1.7-2.6-1.7-5.2c0-1.3,0.9-7.8,2.2-7.8c0.4,0,0.9,0,0.9-0.4
			c0-0.7-1.3-1.7-1.3-1.7s2.2-0.4,2.2-3.5c0-0.4,0-0.4,0.4-0.4c0,0,6.3-20.8,7.8-20.8c0.4,0,0.9-0.9,1.3-1.7
			c0.9-3.9,16.1-36.9,16.9-38.2c1.1-2,18.2-33.9,22.1-33.9c1.5,0,1.9,0.9,3,0.9c0.2,0,0.4-0.2,0.4-0.4c0,0,0,0,0,0
			c1.5,0,4.8,3.7,4.8,7.4c-0.3,1.1-0.7,2.1-1.3,3c-0.4,0-1.3,2.6-3.5,3.9c-8.2,6.1-30.4,52.1-30.4,52.1l0.4,0.9
			c0,0.9-1.3,1.7-2.2,3.5c-5.6,11.7-5.6,15.2-7,16.5c-0.4,0.9-5.6,15.2-5.6,16.9l0.4,0.4c0.9,0,6.5-8.2,15.2-18.7
			c0.9-0.9,2.2-2.2,2.2-3c1.3-2.6,6.5-7.8,7.4-9.1c6.9-6.9,6.9-12.2,16.9-19.5c0.9-1,2.1-1.6,3.5-1.7c0.4,1.3,0,1.7,1.3,1.7l3.5,1.7
			c1.4,1.4,2.2,3.3,2.2,5.2c0,1.7-0.6,3.7-2.6,6.1c-11.1,22.8-13.7,26.9-14.3,40.4l-0.4-0.4l0.4,5.2c0.4,0.4,1.7,0.4,3,0.4
			c2.6,0,6.5-0.4,7.8-1.3c9.6-3.5,17.4-16.9,23.4-21.3c2.8-2.8,6.5-10.4,6.5-10.4c1.3,0,3.5,0.4,3.5,1.7c0,3.9-8.2,13.9-20.9,29.1
			c-1.7,2.4-10.9,10.4-16.9,10.4C206.7,149.2,203.2,147.4,202.4,145.7z M164.6,123.1l-0.4-0.2c-0.4,0.3-0.6,0.8-0.7,1.3l0.2,0.4
			L164.6,123.1z M173.7,99.9c4.8-9.3,6.7-16.9,9.3-20.2c0.6-1.1,11.5-23,11.5-24.1c-0.6,0-6.7,11.1-14.5,27.3
			c-4.1,8.5-4.4,8.9-4.4,10.4c0,1.9-1.1,1.1-5.2,11.3c-4.8,12.2-6.3,16.1-6.3,17.2l0.2,0.2C165.9,122,169.8,107.5,173.7,99.9z
			 M178.7,94.5v-0.2l-1.3,2l0.2,0.2C178.2,95.9,178.6,95.2,178.7,94.5L178.7,94.5z M188.2,74l-1.5,2c-1.3,2.6-2.2,2.8-2.2,3.7
			c0,1.3-4.6,8.7-4.6,10.6l0.4,0.7C181.1,91,188.2,76.4,188.2,74z M193.2,105.9l-2.2,2.4c-8.5,12.4-10.4,13-10.4,15.4l0.2,0.2
			C181.7,124,193.2,106.8,193.2,105.9L193.2,105.9z M201.7,94.4c-0.6,0-7.6,9.3-7.6,10.2C195,104.7,201.7,95.1,201.7,94.4
			L201.7,94.4z M204.3,91.4l-0.2-0.2l-1.7,2.2C203.7,92.5,204.3,91.8,204.3,91.4L204.3,91.4z M203.7,128.1
			c0.2-2.8,7.4-24.3,9.1-26.1l1.3-2.4l-0.2-0.4c-0.2,0-1.3,1.5-3.9,7c-3,5.9-7.2,17.4-7.6,22.8l0.4,0.6
			C203,129.6,203.4,129,203.7,128.1L203.7,128.1z M230.6,128.1h-0.2c-0.4,0-3.5,2.8-3.5,3.3l0.6-0.2
			C229.1,130.3,230.6,128.8,230.6,128.1L230.6,128.1z M232.1,127l-0.2-0.4l-0.6,0.4l0.2,0.7L232.1,127z"/>
		<path class="st0" d="M264,77.5c0.9,1.7,1.7,2.6,2.2,2.6s0.4,0.4,0.4,0.9v0.4c0,0.9,0.4,0.9,1.7,0.9c0.3-0.8,0.8-1.5,1.3-2.2
			c0.4,0,0.4,0.4,0.4,0.9v2.2c0,1.3,0.9,0.9,0.9,1.7c0,2.6-18.7,28.2-20,33c-1.4,3.8-2.1,7.7-2.2,11.7c0,1.9,0.3,3.8,0.9,5.6l0.9,3
			c10.9-0.9,13.9-2.2,28.7-15.2c7.8-6.9,11.3-10.8,14.8-14.3c0.9-0.9,1.3-0.9,1.7-0.9s0.9,0.4,1.3,0.9c0.2,0.2,0.4,0.5,0.4,0.9
			c0,0.9-0.9,2.2-3,3c-4.3,1.7-4.3,3.9-4.3,4.3v0.4c0,0-0.9,2.2-1.7,2.2c-2.6,2.2-3.5,2.2-5.2,4.3v0.4c0,0.7-0.2,1.1-2.6,2.2
			c-1.3,0.4-2.6,1.3-2.6,1.7c0,0,0,0.9-7.4,5.6c-2.2,1.7-3,2.2-3,2.6s0.4,0.4,0.4,0.9c0.4,0,0.9,0.4,1.3,0.4c1.1-0.3,2.1-0.7,3-1.3
			c2.6-1.7,6.1-4.4,7-4.4c0,0.4-2.2,2.6-8.2,8.7c-3,3-8.2,6.1-11.7,6.5h-0.4c-2.6,0-8.2-2.2-10.9-3.9c-1.7-1.3-5.2-1.7-8.7-9.6
			v-12.1c0-1.3,18.2-44.7,23.9-44.7C263.6,77.1,263.6,77.5,264,77.5z M243.6,115.3c-0.6,0.5-1,1.2-1.1,2c-0.6,1.1-0.9,3.7-0.9,5.7
			c0,1.3,0.2,2.4,0.4,2.4l1.1-3.3c0.2-3,0.9-5,0.9-6.1C244.1,115.5,243.8,115.3,243.6,115.3z M245.1,108.6c-0.2,0-0.2,0.7-0.9,2.6
			c-0.7,1.3-1.3,2-1.3,2.2c0.2,0,0.6-0.2,1.3-1.1c0.7-0.9,1-1.9,1.1-3L245.1,108.6z M253.6,84.5c0.9,0,0.9,0,0.9,0.4
			c-0.2,0.9-0.5,1.8-0.9,2.6c-1.3,3-6.1,12.6-6.1,13C247.5,98.6,252.7,84.5,253.6,84.5z M267.9,68.4c0.2,0,0.4-3,0.4-3.9V64
			c0-0.4,7.6-9.8,9.1-10.4c0.2-0.2,0.6-0.2,1.1-0.2c0.6,0,1.5,0.2,2.2,0.2l3.3,0.2c0.9,0.2,1.3,0.2,1.3,0.4
			c-0.2,0.4-0.5,0.8-0.9,1.1h1.7c0.6,0,1.1,0,1.1,0.7s-5.6,8.7-5.6,9.3c0,0.4-3.9,5.2-5.4,6.1l-0.4,0.2c-2,0-6.5-1.5-7.2-1.5
			c-1.1-0.2-1.5-0.4-1.5-0.7C267.3,68.8,267.7,68.4,267.9,68.4z"/>
		<path class="st0" d="M287.5,137.9c-1.3-2.6-1.7-3.9-1.7-6.1c0.2-2.2,0.6-4.4,1.3-6.5c1.7-8.7,7-17.4,17-31.3
			c5.6-8.2,14.3-13.9,21.7-13.9c2.2,0,3.9,0,5.6,1.3h1.3c0.9,0,1.7-0.9,2.2-2.2s0.9-1.7,1.3-1.7c0.5-0.1,1,0.1,1.3,0.4v0.4
			c-0.1,0.7-0.4,1.3-0.9,1.7c-0.7,0.6-1.1,1.3-1.3,2.2l0.4,0.4c1.7,0,5.2-10.4,5.2-12.2v-0.4H340c-0.4,0-0.4-0.4-0.4-0.9
			c-0.1-1,0.2-1.9,0.9-2.6c0-0.4,0-0.4,0.4-0.4v3L343,67c1.7-3,2.6-4.3,2.6-5.2s-0.4-0.9-0.9-0.9c-0.4,0.4-0.9,1.7-1.7,1.7h-0.4
			v-0.6c0-2.8,12-26.5,22.6-35.8c6.9-5.6,7.4-6.1,11.7-6.5c3.9,0,4.8,0.4,7.8,2.6c2.2,2.2,3,3.5,3,5.6v0.9c0,2-1.3,4.6-3.5,8.2
			c-2.6,3.9-4.3,7.4-5.6,8.7c-1.7,1.7-1.7,3-9.1,13.9c-6.5,9.6-2.2,4.8-10.4,17.4c-3,3.9-5.6,7.4-5.6,7.8c0,0.2-0.2,0.4-0.4,0.4
			c0,0,0,0,0,0h-0.4c0-0.2-0.2-0.4-0.4-0.4c0,0,0,0,0,0c0-0.9,1.3-2.6,1.3-3c0-0.2-0.2-0.4-0.4-0.4c0,0,0,0,0,0
			c-0.3,0-0.6-0.2-0.9-0.4c0-0.4,0-0.4,0.4-0.4h1.7v-0.9c-0.4-0.4-0.4-0.4-0.4-0.9h0.9c0.5,0.1,1-0.1,1.3-0.4
			c1.7-2.6,6.9-11.3,6.9-11.7c0-0.5,0.4-0.8,0.9-0.9c0.4,0,0.9-0.9,1.3-1.7c0.3-0.5,0.4-1.1,0.4-1.7c0-0.4,0-0.4-0.4-0.4
			c0-0.2-0.2-0.4-0.4-0.4c0,0,0,0,0,0h0.9c1.4-0.6,2.2-2,2.2-3.5v-0.9c0-0.4,0-0.4,0.4-0.4c1.3,0,2.2-0.9,2.2-1.3h-1.3
			c-0.2,0-0.4-0.2-0.4-0.4c0,0,0,0,0,0c0.4-0.3,0.8-0.5,1.3-0.4c0.9,0,4.4-4.3,4.4-5.7c0-0.5,0.4-0.8,0.9-0.9
			c0.9-0.4,0.9-2.6,4.8-8.7c0.6-0.8,1.1-1.6,1.3-2.6c-0.4,0-0.4,0-0.9,0.9c-0.9,0.4-1.3,0.9-1.7,0.9V38c0-0.4,0.4-1.3,1.7-2.6
			c1.7-1.3,2.6-2.6,2.6-3h-0.4c-0.6,0-1.2,0.1-1.7,0.4c-0.9,0.4-1.7,0.9-1.7,1.3l-1.7,2.6c-3,3.5-6.1,10.8-7.4,11.3
			c-1.7,0.4-0.4,3-2.2,3.9c-2.2,1.3-4.3,8.7-5.6,8.7c-0.4,0-0.9,0.9-1.3,1.7c-0.3,1.2-1.3,2.1-2.6,2.2c-1.3,0-1.7,0.4-1.7,0.9
			s0,0.9,0.4,0.9s0.4,0,0.4,0.4c-0.2,0.8-0.5,1.5-0.9,2.2c-0.4,1.3-0.9,1.7-1.3,1.7c-0.2-0.2-0.4-0.5-0.4-0.9l-0.4-0.9
			c-0.4,0,0,3-1.3,4.3c-0.9,0.4-0.9,0.9-0.9,1.3v0.4c-0.2,1.2-0.8,2.2-1.7,3c-2.6,3-0.9,1.7-4.3,7c-5.6,10-2.2,5.6-5.2,13.5
			c-0.9,1.1-1.5,2.5-1.7,3.9c0.4,0,5.6-7,8.7-12.2c1.7-2.6,3-3.9,3.5-3.9s0.4,0,0.4,0.4s-1.3,2.6-6.9,10.8c-7.4,9.6-9.1,13-9.1,24.8
			c0.4,9.1,3.5,13.9,9.1,13.9c1.8-0.5,3.5-1.1,5.2-1.8c1.3-0.4,7-3.5,7-4.3c0-0.4,6.5-5.2,7.4-5.2c0.1,0.5-0.1,1-0.4,1.3
			c-0.9,0.4-4.3,3.5-4.3,3.9c0,0.2,0.2,0.4,0.4,0.4c0,0,0,0,0,0v-0.4c2.2-0.9,11.3-10,11.3-11.7c0.1-1,0.5-2,1.3-2.6
			c0.2-0.4,0.6-0.4,1.1-0.4s0.9-1.5,1.1-2c1.2-1.5,1.8-3.5,1.7-5.4l0.4-0.4c0,0,0.4,0,1.3,0.9c0,0.2,0.2,0.4,0.4,0.4c0,0,0,0,0,0
			c0.4,0,0.9-0.4,1.3-0.9v-0.4c0.7,0,1.3,0.6,1.3,1.3c-1.1,0.1-2,0.8-2.6,1.7c-0.4,6.5-13.5,19.1-14.8,20.4s-4.8,6.1-7.8,6.5
			l-1.3,0.9c0,0.4,1.3,0.4,3.9,0.4h0.4c1.9,0,3.7-0.6,5.2-1.7c0.6-0.7,1.3-1.1,2.2-1.3h0.4c0,0.4,0,0.9-0.9,1.3
			c-2.6,1.7-7.4,9.1-18.2,9.1h-0.4c-8.5,0-15.2-10-15.6-13c0-0.9-0.4-1.7-0.9-1.7c-1.3,0-1.3-10.9-2.2-11.7h-0.4
			c-1.3,0-4.8,3.5-10.9,9.6c-8.7,10-16.1,14.8-21.3,15.2C292.7,144.4,290.1,142.2,287.5,137.9z M294.9,133.1c1.1-0.2,2.1-0.7,3-1.3
			c5.4-2.8,11.5-7.2,12.6-7.8c2.8-2,17.8-18.5,17.8-19.5c-0.2-1.1-1.3-2.2-2-2.2l-0.9,0.4l-0.4-0.4c0-2.4,5.9-8.7,5.9-11.1
			c0-0.4-0.2-0.7-0.9-0.7c-0.9,0-4.6,2.6-6.7,4.8c-2.4,2.4-10.4,6.3-19.1,19.1c-4.1,6.1-9.8,16.7-9.8,18.5L294.9,133.1z
			 M323.1,114.4c0,1.3-7,7.4-10.4,10.9l0.9,0.2l0.9-0.7c0.9,0,3.9-2.6,7.4-5.6c3.9-3.5,4.3-6.5,4.3-6.5c0-1.7-0.4-1.7-0.9-1.7
			C324.4,112,323.6,113.2,323.1,114.4L323.1,114.4z M328.1,109.9c-0.9,0-0.9,1.9-0.9,2.8l0.4,1.1c0.4,0,0.9-1.1,0.9-2.2v-0.4
			C328.5,110.5,328.5,110.1,328.1,109.9L328.1,109.9z M337.9,84.5v0.4c0.4,0,1.3-1.7,1.3-2.6C338.5,82.3,337.9,83.6,337.9,84.5z
			 M339.1,80.6c0,0.2,0.2,0.4,0.4,0.4c0,0,0,0,0,0c0.4,0,0.9-0.9,0.9-1.7H340C339.6,79.2,339.1,79.7,339.1,80.6z M345.2,60.2
			c0.9,0,2.2-3,2.2-3.9C346.8,56.2,345.2,58.8,345.2,60.2L345.2,60.2z M349.8,51.7c-0.5,0-0.8,0.4-0.9,0.9l0.4,0.7
			c0.2,0,0.4-0.2,0.6-0.7c0.1-0.1,0.2-0.3,0.2-0.4L349.8,51.7z M353.5,44.5v0.2c0,0.7,0,0.9,0.2,0.9s0.4-0.4,0.9-0.9v-0.4
			c0-0.2-0.2-0.2-0.4-0.2C353.7,44.1,353.5,44.3,353.5,44.5L353.5,44.5z M358,38.7c0.2-0.2,2.8-3.5,3-3.7c-0.9,0.9-3.3,2.8-3.3,3.5
			L358,38.7z M370.9,43c-5.4,6.7-7.4,9.3-7.4,10s-2.8,5.2-3.7,6.1c-0.7,1-1.1,2.2-1.3,3.5c0.9,0,2.8-3,3.7-3.9
			c0.3-0.5,0.5-1,0.6-1.5c1.3-2.5,2.8-4.9,4.3-7.2c1.8-2.6,3.4-5.4,4.8-8.2L370.9,43z M363,134.4c3-4.1,5-5.2,5.9-5.2h0.2v1.3
			c-1.7,1.7-7.4,6.1-8.5,6.1L363,134.4z M373,117.9c0.9-0.9,1.3-0.9,1.3-1.3h-0.9c-0.9,0-1.3,0.4-1.3,0.9s0,0.4,0.4,0.4H373z
			 M383.2,29.1c-0.2,0-0.4,0.2-0.4,0.6c0,0.9,0.2,1.3,0.4,1.3c0.5-0.3,0.7-0.8,0.6-1.3c0-0.2,0-0.6-0.4-0.6H383.2z"/>
		<path class="st0" d="M376.5,150c-0.3-0.6-1-1-1.7-0.9h-0.4c0,0-5.4,0-5.4-16.3l0.2-3.7c1.1-1.7,1.7-1.3,1.7-3c0-0.4,0-0.9-0.4-0.9
			c0,0,3.5-3.7,3.5-5.7l-0.4-3l0.4-0.4c0.6,0,0.2,0.4,1.3,1.3c-0.1-0.5-0.2-0.9-0.4-1.3c0-1.4,0.5-2.8,1.3-3.9
			c8.2-14.3,12.6-20.8,17.4-26.1l1.3-3.5c0,0,9.1-4.3,11.3-4.3c3.2-0.2,6.3,1.5,7.8,4.3c0.9,1.3,1.7,1.7,2.2,1.7c0.9,0-0.4-3,2.2-3
			c0.7-0.4,1.4-0.7,2.2-0.9c0.9,0,4.4,2.6,4.4,2.6c1.3,0,1.7,3.3,1.7,5.2c-0.9,3-2.2,7.4-3,8.2c-2.6,3.9-6.5,18.2-6.5,18.2
			c-0.5,3.1-0.8,6.2-0.9,9.3c0,6.1,0.9,9.3,4.6,10c5.2,0,12.8-8.9,14.5-8.9c0.4,0.4,0.4,0.4,0.9,0.4c0.9-0.9,1.7-1.5,1.7-2.6
			c0-0.5,0.4-0.8,0.9-0.9c0,0,0.9,0,3.5-3.5c0,0,7.4-7.4,7.4-8.7c0-0.4,0.9-0.9,1.3-1.3c3.5-0.4,1.3-1.3,3.9-1.3
			c1.3,0,1.7,1.7,1.7,3c0,1-0.2,2-0.4,3c-1.9,3.9-4.4,7.4-7.4,10.4v0.9l-1.3-0.9c-1.3,0-4.1,3.3-11.7,10.9c-1.3,1.3-2.2,2.2-2.2,2.6
			c1.1,0,2.2-1.1,5.6-3v0.4c-4.3,4.3-5.9,6.9-13,8.2c-2,0.6-4.1,0.6-6.1,0c-2.6-1.7-2.2-2.6-3.9-3.5c-2.2-0.9-5.2-4.8-6.1-7.8
			c-0.7-4.9-1.1-9.8-1.3-14.8l0.4-2.6c0-0.3-0.2-0.6-0.4-0.9c-0.9,0-2.8,4.6-4.8,7.4c-0.8,0.7-1.4,1.6-1.7,2.6
			c-1.3,2.4,0.6,0.2-8.2,12.2c-3.9,7.4-5.6,9.6-10.4,13c-2.2,1.3-3.5,2.2-4.8,2.2C377.9,150.9,377.1,150.6,376.5,150z M376.5,121.3
			c2-3.7,5.9-12.4,5.9-12.4c-0.9,0-1.7,3.5-2.8,3.5c0,0.9-4.3,8.9-5.2,9.8v1.8C374.8,124,375.6,123.1,376.5,121.3L376.5,121.3z
			 M377.1,114.6c0-0.3-0.2-0.6-0.5-0.7c-0.1,0-0.1,0-0.2,0c-0.4,0-0.6,0.3-0.6,0.7c0.1,0.3,0.3,0.6,0.6,0.7
			C376.8,115.2,377.1,115,377.1,114.6L377.1,114.6z M387.8,130.5c0.9-1.3,1.3-1.7,1.7-1.7c0.9,0,0.2,0.2,0.9,0.9c0,1.1-3,4.1-3,4.8
			l0.4,0.4c1.5,0,21.3-27.8,22.6-31.7v-2.6c0,0-2.2,4.3-3,4.3c-0.4,0-0.4,0-0.4-0.4c0-1.1,0.2-1.7,1.3-3.9c0-0.4,0-0.4,0.4-0.9
			c2.4-1.3,3.3-6.1,5.6-10c-1.3-0.9-2-1.3-3-1.3c-3,0-6.5,3.9-14.8,13.9c-1.3,0.9-10.4,13.9-10.4,14.3c-0.5,1.4-1.2,2.8-2.2,3.9
			c-3.5,4.3-4.8,16.5-4.8,16.5s0.2,0.4,1.1,0.4C381.5,137.4,383.9,136.4,387.8,130.5L387.8,130.5z M383,113.6
			c-1.1,0-2.6,2.6-2.6,3.9v0.4C380.8,117.9,383,114.4,383,113.6z M394.7,133.6c0.9-1.2,1.6-2.5,2.2-3.9c-0.4,0-2,2.2-4.8,5.6
			c-4.8,5.6-5,5.2-6.5,6.9h1.3C388.2,142.2,391.7,137.9,394.7,133.6L394.7,133.6z M411.7,126.4c0-1.5-0.9-7.2-0.9-7.2v1.1
			c0,2.2,0,5.7,0.6,6.5L411.7,126.4z M413.4,135.3l0.6,1.1c0.4,0.9,0.9,1.3,1.3,1.3C415.4,136.8,413.6,135.3,413.4,135.3
			L413.4,135.3z M415.4,118.6c0-0.2-0.2-0.4-0.6-0.4h-0.2c-0.3,0.3-0.4,0.7-0.4,1.1c0,0.3,0.2,0.6,0.4,0.9
			C414.9,120.1,415.4,119.2,415.4,118.6L415.4,118.6z M415.6,114.9l-0.2-0.2c-0.5,0-0.8,0.4-0.9,0.9c0,0.3,0.2,0.6,0.4,0.9
			L415.6,114.9z M432.5,135.7l-0.2-0.2c-0.4,0-2.6,1.5-2.6,1.9l0.6,0.2C431.4,137.7,432.5,136.1,432.5,135.7L432.5,135.7z
			 M449.9,114.9c0,0-0.4-0.7-0.9-0.7c-0.2,0-0.6,0.2-0.9,1.1c-17.2,20-17.8,17.6-17.8,19.1C431.6,134.4,449.9,117.5,449.9,114.9
			L449.9,114.9z"/>
	</g>
</g>
</svg>
