<svg xmlns="http://www.w3.org/2000/svg" width="40" height="40" viewBox="0 0 40 40">
  <g id="グループ_35" data-name="グループ 35" transform="translate(1242 178)">
    <rect id="長方形_42" data-name="長方形 42" width="40" height="40" rx="4" transform="translate(-1242 -178)" fill="#23af4c"/>
    <g id="グループ_19" data-name="グループ 19" transform="translate(-1287 -178)">
      <text id="吉" transform="translate(54 28)" fill="#fff" font-size="22" font-family="HiraginoSans-W3, Hiragino Sans"><tspan x="0" y="0">吉</tspan></text>
      <path id="吉_-_アウトライン" data-name="吉 - アウトライン" d="M9.368-18.87h2.893l-.109.591a8.921,8.921,0,0,0-.146,1.867v.732H18.15a15.317,15.317,0,0,0,2.22-.127l.568-.078v2.654L20.38-13.3a17.885,17.885,0,0,0-2.23-.107H12.006v2.476H17.05a11.7,11.7,0,0,0,1.948-.1l.576-.089V-8.5l-.562-.07a15.213,15.213,0,0,0-1.962-.106H4.928a15.213,15.213,0,0,0-1.962.106L2.4-8.5v-2.623l.576.089a11.849,11.849,0,0,0,1.948.1H9.62V-13.4H3.872A15.451,15.451,0,0,0,1.65-13.3l-.566.075v-2.666l.571.082a15.3,15.3,0,0,0,2.217.127H9.62v-.732A8.581,8.581,0,0,0,9.5-18.264Zm1.709,1h-.5c.039.387.048.83.048,1.458v1.732H3.872c-.71,0-1.275-.021-1.788-.07v.4c.464-.039.976-.052,1.788-.052H10.62v4.476H4.928c-.62,0-1.085-.009-1.524-.047v.356c.459-.038.941-.055,1.524-.055H17.05c.583,0,1.065.017,1.524.055v-.355c-.392.034-.838.046-1.524.046H11.006V-14.4H18.15c.65,0,1.205.011,1.788.058v-.4c-.523.049-1.079.071-1.788.071H11.006v-1.732A11.641,11.641,0,0,1,11.076-17.87ZM3.634-7.458l.664.1a9.784,9.784,0,0,0,1.51.082H16.236a10.062,10.062,0,0,0,1.535-.083l.672-.1-.107.67a10.285,10.285,0,0,0-.1,1.7V-.748a14.534,14.534,0,0,0,.127,2l.078.568H15.8V.72H6.242v1.1H3.631l.075-.566a15.218,15.218,0,0,0,.128-2V-5.082a11.318,11.318,0,0,0-.1-1.711ZM17.3.82c-.047-.5-.071-1.013-.071-1.568V-5.082c0-.449.008-.839.039-1.22-.287.019-.612.026-1.035.026H5.808c-.414,0-.735-.008-1.017-.026.034.406.043.788.043,1.22V-.748C4.834-.213,4.81.313,4.762.82h.48V-.28H16.8V.82ZM5.242-6H16.824V-.556H5.242ZM15.824-5H6.242v3.444h9.582Z" transform="translate(54 28)" fill="#fff"/>
    </g>
  </g>
</svg>
